# xmcd
#
# Track frame offsets: 
#        150
#        12650
#        24069
#        35733
#        48323
#        60753
#        72712
#        84099
#        97804
#        109926
#        121874
#        134882
#        146892
#        162031
#        174637
#        187012
#        198307
#        210261
#        222689
#        234386
#        247153
#        258821
#        270422
#        283796
#        295505
#        308989
#        320190
#        333868
#
# Disc length: 4631 seconds
#
# Revision: 0
# Processed by: cddbd v1.5.1PL0 Copyright (c) Steve Scherf et al.
# Submitted via: ExactAudioCopy v0.95a5
#
DISCID=a112151c
DTITLE=Various Artist - A Shot in The Dark - Nashville Jumps - CD  2
DYEAR=2002
DGENRE=Country
TTITLE0=Sherman Williams - Baby Don´t You Want To Go
TTITLE1=Cecil Gant - Three Little Girls
TTITLE2=Cecil Gant - Another Day Another Dollar
TTITLE3=Sherman Williams - My Flamin´ Gal (Red Head Blues)
TTITLE4=Sherman Williams - Baby Please Don´t Go (Skippy´s Blues)
TTITLE5=Smokey Hogg - Hard Times
TTITLE6=Cecil Gant - I´m A Good Man But A Poor Man
TTITLE7=Cecil Gant - Cecil´s Jam Session
TTITLE8=Red Miller Trio - Bewildered
TTITLE9=Cecil Gant - I Ain´t Gonna Cry No More
TTITLE10=Sherman Williams - Ooh Wee Baby Gee
TTITLE11=Walter Davis - You´ve Gotta Reap What You Sow
TTITLE12=Walter Davis - Move Back To The Woods
TTITLE13=Max Blues Bailey - Delinquency Blues
TTITLE14=Max Blues Bailey - Sting-A-Ree
TTITLE15=B.B. King - Miss Martha King
TTITLE16=B.B. King - When Your Baby Packs Up And Goes
TTITLE17=Max Blues Bailey - Rocking The Blues
TTITLE18=Tuff Green - Let´s Go To The Liquor Store
TTITLE19=Tuff Green - Love My Baby
TTITLE20=B.B. King - I Got The Blues
TTITLE21=B.B. King - Take A Swing With Me
TTITLE22=Roosevelt Sykes - Candy Man Blues
TTITLE23=Cecil Gant - What´s The Matter
TTITLE24=Cecil Gant - You Can´t Do Me Right
TTITLE25=Doc Wiley - Play Your Hand
TTITLE26=Mr. Swing With Bobby Plater´s Orchestra - Gonna Bring My Baby
TTITLE26=Back
TTITLE27=Mr. Swing With Bobby Plater´s Orchestra - Beer Bottle Boogie
EXTD=
EXTT0=
EXTT1=
EXTT2=
EXTT3=
EXTT4=
EXTT5=
EXTT6=
EXTT7=
EXTT8=
EXTT9=
EXTT10=
EXTT11=
EXTT12=
EXTT13=
EXTT14=
EXTT15=
EXTT16=
EXTT17=
EXTT18=
EXTT19=
EXTT20=
EXTT21=
EXTT22=
EXTT23=
EXTT24=
EXTT25=
EXTT26=
EXTT27=
PLAYORDER=
